<svg width="37" height="34" viewBox="0 0 37 34" fill="none" xmlns="http://www.w3.org/2000/svg">
<path id="Vector 2" d="M20.6291 20.3729C23.8323 19.5651 27.0581 18.8286 30.2076 17.8303C30.8995 17.6109 35.2393 17.7627 34.9572 19.0445C34.6378 20.4962 28.796 21.1184 27.5501 21.2617C25.702 21.4742 23.8146 21.5168 21.9566 21.6092C20.1943 21.6967 20.9059 22.6936 21.3013 24.1706C21.9334 26.5322 23.2762 28.6035 23.868 30.9501C24.0587 31.7064 23.8641 30.9004 23.7927 30.6517C23.3231 29.0143 22.4186 27.4922 21.7602 25.9275C21.5764 25.4905 20.0162 21.0909 19.7581 21.4495C18.2326 23.5689 16.1235 25.4305 14.4524 27.469C14.3108 27.6418 11.8739 30.2952 12.3474 29.19C13.2743 27.0269 14.7472 25.3819 16.4901 23.8447C17.1361 23.275 19.2744 22.098 18.2201 21.2661C15.7326 19.3032 12.9757 17.7889 10.5208 15.7176C10.3191 15.5475 6.94476 12.7522 7.96829 12.2036C10.7765 10.6984 14.0794 13.8674 16.0064 15.5085C16.1262 15.6105 18.5063 17.918 18.5639 17.8469C18.862 17.4784 18.9077 16.0365 18.9476 15.7188C19.3541 12.4846 19.5116 9.21387 20.2487 6.0279C20.4147 5.3102 21.1576 2.17594 22.4613 2.2167C23.4085 2.24631 22.3953 8.83132 22.3303 9.24803C21.9872 11.4492 21.4229 13.5968 20.7912 15.7299C20.5523 16.5366 19.8949 17.7628 19.9538 18.6389C19.9795 19.0209 20.3312 18.4282 20.3415 18.4142C20.9305 17.6144 21.795 16.9966 22.4867 16.2862C24.5222 14.1958 26.8614 12.4673 28.931 10.4398C29.03 10.3428 27.2636 11.7321 26.8374 12.2691C25.133 14.4163 23.4815 16.6054 21.7752 18.7508C21.1765 19.5037 22.0223 19.3664 22.5869 19.6411C24.5191 20.5812 26.477 22.7275 28.086 24.1417C29.2614 25.1749 30.3168 26.3124 28.2601 25.3356C26.8645 24.6728 25.2843 23.803 24.1086 22.7803C23.5712 22.3127 22.9944 21.5219 22.2956 21.3174C21.5289 21.093 21.3198 21.0556 20.4892 21.2651C17.3066 22.0678 14.1296 22.5444 10.8791 22.9905C8.32818 23.3406 5.81566 24.0879 3.2688 24.402C1.86062 24.5756 2.25869 23.9964 3.237 23.4579C7.37846 21.1781 12.0243 19.6865 16.5948 18.5339C18.8069 17.976 18.8277 20.6163 19.827 22.289C20.5392 23.4813 20.8545 24.4549 21.8413 25.4309C22.5021 26.0846 23.0873 26.7218 23.3162 27.6298C23.5174 28.4272 24.7056 29.9931 24.3379 30.7998C23.5994 32.42 23.0146 30.7846 22.432 29.5349C21.5555 27.6548 21.2048 25.5999 20.3897 23.7023C20.2997 23.4927 20.0105 22.1355 19.862 22.9943C19.6057 24.4774 20.3763 26.1661 20.7374 27.5978C21.0986 29.0302 21.6652 30.7345 22.7949 31.792C23.0102 31.9936 24.0013 32.0228 23.6827 31.5998C22.7653 30.3819 21.6889 29.2568 20.6266 28.1653C19.8835 27.4017 18.5636 26.7884 18.2591 25.6996C18.122 25.2091 17.7441 22.7378 17.0625 22.7165C16.0911 22.6861 15.3995 27.3179 15.2043 28.3108C14.7451 30.6465 14.2205 31.701 11.7866 32.3149C10.9013 32.5381 10.7131 31.5517 10.6899 30.7348C10.6481 29.264 12.3865 26.8896 13.5205 26.1647" stroke="black" stroke-width="3" stroke-linecap="round"/>
</svg>
