<svg width="33" height="37" viewBox="0 0 33 37" fill="none" xmlns="http://www.w3.org/2000/svg">
<path id="Vector 1" d="M19.1879 16.2743C19.1879 12.9709 19.2626 9.66291 19.0648 6.36487C19.0213 5.64038 20.2297 1.46942 21.4036 2.05641C22.7331 2.72113 21.9079 8.53774 21.7422 9.78086C21.4963 11.6248 21.076 13.4653 20.7112 15.2895C20.3652 17.0197 21.5058 16.5735 23.0347 16.5513C25.4791 16.5159 27.8159 15.7204 30.236 15.7204C31.016 15.7204 30.1868 15.712 29.9282 15.7204C28.2257 15.7753 26.5287 16.2802 24.8504 16.5359C24.3817 16.6073 19.7342 17.0443 20.0188 17.3822C21.7008 19.3797 22.9901 21.88 24.558 23.9988C24.691 24.1784 26.6679 27.1902 25.7121 26.4607C23.8413 25.033 22.6064 23.2026 21.5421 21.1367C21.1476 20.371 20.5293 18.0098 19.4648 18.8286C16.9533 20.7606 14.8107 23.0635 12.202 24.9374C11.9877 25.0913 8.45216 27.6797 8.17051 26.5531C7.39774 23.462 11.2782 21.0343 13.3407 19.5672C13.469 19.4759 16.2884 17.7324 16.2335 17.6592C15.9491 17.28 14.5622 16.8831 14.2639 16.7667C11.2273 15.5817 8.09436 14.6291 5.18536 13.1353C4.53005 12.7988 1.67262 11.312 2.03096 10.0578C2.29129 9.14668 8.4286 11.7394 8.81678 11.9043C10.8672 12.7753 12.8116 13.8476 14.7255 14.9818C15.4493 15.4107 16.4775 16.3481 17.3414 16.5051C17.718 16.5736 17.2293 16.0877 17.2183 16.0743C16.5869 15.3076 16.1992 14.3183 15.6795 13.4738C14.1504 10.9889 13.0463 8.29807 11.5865 5.79554C11.5166 5.67577 12.4318 7.72829 12.8483 8.2729C14.5135 10.4505 16.2323 12.5872 17.8953 14.7664C18.4789 15.5311 18.5526 14.6773 18.957 14.197C20.3412 12.5534 22.901 11.1798 24.6657 9.96551C25.955 9.07843 27.3161 8.33322 25.866 10.0886C24.882 11.2797 23.6522 12.5993 22.373 13.4892C21.7883 13.896 20.8804 14.2618 20.5112 14.8895C20.1061 15.578 20.0188 15.7716 20.0188 16.6282C20.0188 19.9105 19.704 23.1076 19.3417 26.3684C19.0574 28.9275 19.1676 31.5465 18.8493 34.0929C18.6733 35.5008 18.209 34.9731 17.9261 33.8928C16.7283 29.3196 16.4181 24.45 16.4181 19.7365C16.4181 17.4551 18.9834 18.0806 20.8497 17.5207C22.1799 17.1216 23.201 17.054 24.3888 16.3359C25.1841 15.855 25.9451 15.4434 26.8815 15.4434C27.7039 15.4434 29.5129 14.6741 30.2052 15.228C31.5955 16.3403 29.8668 16.5074 28.5126 16.7667C26.4753 17.1568 24.3969 16.9944 22.3576 17.3207C22.1324 17.3567 20.7457 17.3052 21.5421 17.6592C22.9174 18.2704 24.7433 17.9362 26.2199 17.9362C27.6972 17.9362 29.4882 17.8036 30.7899 16.9668C31.038 16.8073 31.3086 15.8534 30.8207 16.0589C29.4154 16.6506 28.0612 17.4192 26.743 18.1824C25.821 18.7162 24.9035 19.846 23.7733 19.875C23.2641 19.888 20.7754 19.6501 20.5881 20.3058C20.3211 21.2402 24.6432 23.0435 25.5582 23.4756C27.7107 24.492 28.6049 25.2586 28.6049 27.7687C28.6049 28.6817 27.6024 28.623 26.8046 28.4457C25.3683 28.1265 23.4911 25.8603 23.0655 24.5835" stroke="black" stroke-width="3" stroke-linecap="round"/>
</svg>
